<?xml version="1.0" encoding="utf-8"?>
<!-- Generator: Adobe Illustrator 20.1.0, SVG Export Plug-In . SVG Version: 6.00 Build 0)  -->
<svg version="1.1" id="Layer_1" xmlns="http://www.w3.org/2000/svg" xmlns:xlink="http://www.w3.org/1999/xlink" x="0px" y="0px"
	 viewBox="0 0 216 216" style="enable-background:new 0 0 216 216;" xml:space="preserve">
<path d="M11.9,216C5.3,216,0,210.7,0,204.1V11.9C0,5.3,5.3,0,11.9,0h192.2c6.6,0,11.9,5.3,11.9,11.9v192.2c0,6.6-5.3,11.9-11.9,11.9
	H11.9z M149,216v-83.6h28.1l4.2-32.6H149V78.9c0-9.4,2.6-15.9,16.2-15.9l17.3,0V33.9c-3-0.4-13.2-1.3-25.2-1.3
	c-24.9,0-41.9,15.2-41.9,43.1v24H87.2v32.6h28.1V216H149z"/>
</svg>
