<?xml version="1.0" encoding="utf-8"?>
<!-- Generator: Adobe Illustrator 20.1.0, SVG Export Plug-In . SVG Version: 6.00 Build 0)  -->
<svg version="1.1" id="Layer_1" xmlns="http://www.w3.org/2000/svg" xmlns:xlink="http://www.w3.org/1999/xlink" x="0px" y="0px"
	 viewBox="0 0 216 216" style="enable-background:new 0 0 216 216;" xml:space="preserve">
<g>
	<path d="M0,143.6c0-23.7,0-47.4,0-71.1c0.1-0.6,0.3-1.2,0.3-1.9c0.3-8.5,0.6-17,2.7-25.2C7.7,27,18.4,13.7,36,6.2
		c10.1-4.3,20.7-5.4,31.6-5.7c1.6,0,3.2-0.3,4.8-0.4c23.7,0,47.4,0,71.1,0c0.6,0.1,1.2,0.3,1.9,0.3c7.1,0.6,14.3,0.6,21.3,2
		c23.3,4.4,38.8,17.9,45.7,40.8c3.1,10.2,3.3,20.8,3.5,31.4c0.3,18.8,0.2,37.6,0.1,56.3c0,12,0.2,24.2-2.2,36
		c-4.6,23.1-17.8,38.5-40.5,45.5c-10.1,3.1-20.5,3.5-30.9,3.5c-23.9,0.2-47.8,0-71.8-0.1c-8.5-0.1-17-0.6-25.2-2.7
		c-18.4-4.7-31.7-15.4-39.2-33c-4.3-10.1-5.4-20.7-5.7-31.6C0.4,146.9,0.1,145.2,0,143.6z M196.2,108.1c0.1,0,0.1,0,0.2,0
		c0-9.1,0.2-18.1-0.1-27.2c-0.3-9.2-0.4-18.5-1.8-27.5c-2.5-16.2-12-26.9-28.1-31.1c-8.7-2.3-17.7-2.3-26.6-2.5
		c-19.6-0.2-39.3-0.3-58.9,0c-9.2,0.1-18.5,0.4-27.5,1.8c-16.2,2.5-26.9,12-31.1,28.1c-2.3,8.7-2.3,17.7-2.5,26.6
		c-0.2,19.6-0.3,39.3,0,58.9c0.1,9.2,0.4,18.5,1.8,27.5c2.5,16.2,12,26.9,28.1,31.1c8.7,2.3,17.7,2.3,26.6,2.5
		c19.6,0.2,39.3,0.3,58.9,0c9.2-0.1,18.5-0.4,27.5-1.8c15.7-2.4,26.3-11.3,30.8-26.9c2.4-8,2.5-16.3,2.7-24.6
		C196.3,131.4,196.2,119.8,196.2,108.1z"/>
	<path d="M107.9,52.5c30.7,0,55.7,25,55.7,55.7c0,30.6-25,55.5-55.6,55.5c-30.6,0-55.6-25-55.6-55.6C52.4,77.5,77.4,52.5,107.9,52.5
		z M108.1,72.2c-19.8,0-36,16-36,35.6c0,20,15.9,36.2,35.6,36.2c19.9,0,36.1-16,36.1-35.7C143.9,88.3,127.9,72.2,108.1,72.2z"/>
	<path d="M165.7,63.5c-7.2,0-13.1-5.8-13.1-13c0-7.2,5.8-13.1,13-13.1c7.3,0,13.1,5.8,13.1,13C178.7,57.6,172.9,63.4,165.7,63.5z"/>
</g>
</svg>
