<?xml version="1.0" encoding="utf-8"?>
<!-- Generator: Adobe Illustrator 20.1.0, SVG Export Plug-In . SVG Version: 6.00 Build 0)  -->
<svg version="1.1" id="Layer_1" xmlns="http://www.w3.org/2000/svg" xmlns:xlink="http://www.w3.org/1999/xlink" x="0px" y="0px"
	 viewBox="0 0 208.3 210.4" style="enable-background:new 0 0 208.3 210.4;" xml:space="preserve">
<style type="text/css">
	.st0{fill:#DCDDDE;stroke:#010101;stroke-width:0.5;stroke-linejoin:round;stroke-miterlimit:10;}
	.st1{fill:#B2345E;stroke:#010101;stroke-width:0.5;stroke-linejoin:round;stroke-miterlimit:10;}
	.st2{fill:#EEA0A5;stroke:#010101;stroke-width:0.5;stroke-linejoin:round;stroke-miterlimit:10;}
	.st3{fill:none;stroke:#010101;stroke-width:0.5;stroke-linejoin:round;stroke-miterlimit:10;}
</style>
<polygon id="shadow" class="st0" points="3,68.6 50.9,5.5 137.7,10.5 208,80.8 205.9,155.5 141.8,206 84,198 86.3,109 47.4,107.1 
	45.2,193.3 5.8,185.3 "/>
<g>
	<polygon class="st1" points="146.3,105.9 144.1,103.3 199.6,80.8 204.8,82.2 	"/>
	<polygon class="st1" points="116.8,138 198.1,155.8 200.7,153.8 116.7,135 	"/>
	<polygon class="st1" points="116.7,135 120.8,134.1 200.7,150.2 200.7,153.8 	"/>
	<polyline class="st1" points="116.7,135 9.8,182.7 9.8,179.4 113.2,133.3 116.7,135 	"/>
	<polygon class="st1" points="116.8,134.8 116.8,138 16,183.4 9.8,182.7 	"/>
	<polygon class="st1" points="116.8,39.8 120.8,38.8 120.8,134.1 116.7,135 	"/>
	<polygon class="st1" points="113.2,45.3 113.2,133.3 116.7,135 116.8,44.3 	"/>
	<polygon class="st1" points="116.8,39.8 113.6,36.7 13.3,66.1 10,70.9 	"/>
	<polygon class="st1" points="10,70.9 116.8,39.8 116.8,44.3 10,76.5 	"/>
	<polygon class="st2" points="0.2,188.7 5.8,189.6 5.8,72 0.2,70.9 	"/>
	<polygon class="st1" points="5.8,185.3 9.8,182.7 10,70.9 5.8,72 	"/>
	<polygon class="st2" points="5.8,185.3 42.9,190.2 42.9,195.1 5.8,189.6 	"/>
	<polygon class="st2" points="42.9,190.2 42.9,186.6 9.8,182.7 5.8,185.3 	"/>
	<polygon class="st2" points="42.9,195.1 42.9,195.1 42.9,109.8 47.4,110.2 47.4,195.8 	"/>
	<path class="st2" d="M48.3,195.9"/>
	<path class="st2" d="M0.2,188.7"/>
	<polygon class="st2" points="42.9,109.8 42.9,104.6 84,108.3 84,113.5 	"/>
	<polygon class="st1" points="47.4,110.2 51.5,110.6 51.5,191 47.4,195.8 	"/>
	<polygon class="st2" points="42.9,104.6 49.4,101.8 88.5,105.9 84,108.3 	"/>
	<polyline class="st2" points="84,113.5 88.5,110.8 88.5,105.9 84,108.3 84,113.5 	"/>
	<path class="st2" d="M79.8,113"/>
	<polygon class="st2" points="79.8,113.1 79.8,200.1 84,200.8 84,113.5 	"/>
	<polyline class="st2" points="84,195.2 88.5,193.3 88.5,110.8 84,113.5 84,195.2 	"/>
	<path class="st2" d="M84,200.8"/>
	<polygon class="st2" points="84,195.2 136,202.7 136,209 84,200.8 	"/>
	<polygon class="st2" points="84,195.2 88.5,193.3 136,200 136,202.7 	"/>
	<polygon class="st2" points="136,209 136,108.3 141.8,108.2 141.8,210 	"/>
	<path class="st2" d="M79.8,200.1"/>
	<path class="st2" d="M163.6,213.5"/>
	<path class="st2" d="M79.8,200.1"/>
	<polygon class="st2" points="141.8,108.2 146.3,105.9 146.2,206 141.8,210 	"/>
	<polygon class="st2" points="146.2,206 208,157.7 208,152.3 146.3,199.9 	"/>
	<polygon class="st2" points="208,152.3 208,85.8 203.9,87.6 203.9,155.5 	"/>
	<path class="st2" d="M208,131.9"/>
	<polygon class="st2" points="146.3,195.6 200.7,153.8 203.9,155.5 146.3,199.9 	"/>
	<polygon class="st2" points="200.7,153.8 203.9,155.5 203.9,87.6 200.7,88.9 	"/>
	<polygon class="st2" points="208,85.8 208,80.8 146.3,105.9 146.3,111 	"/>
	<polyline class="st2" points="141.8,108.2 48.1,0.2 53.5,0.8 146.3,105.9 141.8,108.2 	"/>
	<polygon class="st1" points="141.8,108.2 136,108.3 48.6,6.9 48.1,0.2 	"/>
	<polygon class="st2" points="48.1,0.2 0.2,70.9 5.8,72 48.6,6.9 	"/>
	<polygon class="st1" points="10,70.9 5.8,72 48.6,6.9 50.9,9.7 	"/>
	<polygon class="st2" points="53.5,0.8 137.7,10.5 208,80.8 204.8,82.2 136,13.7 58.1,6.1 	"/>
	<path class="st3" d="M95,5.5"/>
	<polygon class="st1" points="60.8,9.1 134.6,16.2 136,13.7 58.1,6.1 	"/>
	<polygon class="st1" points="134.6,16.2 136,13.7 204.8,82.2 199.6,80.8 	"/>
	<polygon class="st1" points="113.6,36.7 134.6,16.2 136.8,18.3 116.8,39.8 	"/>
	<polygon class="st1" points="120.8,38.8 138.9,20.4 136.8,18.3 116.8,39.8 	"/>
	<polygon class="st1" points="78.3,10.8 80.4,8.3 160.8,100 155.3,98.8 	"/>
	<polygon class="st2" points="80.4,8.3 84.8,8.7 164.6,98.5 160.8,100 	"/>
	<polygon class="st1" points="97.5,12.6 99.6,10.1 173.7,94.8 168.2,93.6 	"/>
	<polygon class="st2" points="99.6,10.1 104,10.6 177.5,93.2 173.7,94.8 	"/>
	<polygon class="st1" points="116.8,14.5 118.8,12 186.6,89.5 181.2,88.3 	"/>
	<polygon class="st2" points="118.8,12 123.3,12.5 190.3,88 186.6,89.5 	"/>
</g>
</svg>
