<?xml version="1.0" standalone="no"?>
<!DOCTYPE svg PUBLIC "-//W3C//DTD SVG 20010904//EN"
 "http://www.w3.org/TR/2001/REC-SVG-20010904/DTD/svg10.dtd">
<svg version="1.0" xmlns="http://www.w3.org/2000/svg"
 width="840.000000pt" height="840.000000pt" viewBox="0 0 840.000000 840.000000"
 preserveAspectRatio="xMidYMid meet">
<metadata>
Created by potrace 1.11, written by Peter Selinger 2001-2013
</metadata>
<g transform="translate(0.000000,840.000000) scale(0.100000,-0.100000)"
fill="#000000" stroke="none">
<path d="M1948 8382 c-14 -16 -462 -674 -483 -709 -5 -9 -31 -46 -56 -82 -25
-36 -97 -142 -160 -236 -63 -93 -117 -171 -121 -173 -5 -2 -8 -8 -8 -12 0 -5
-35 -60 -78 -122 -73 -106 -178 -261 -467 -688 -144 -213 -271 -400 -422 -622
l-113 -166 0 -2359 c0 -1881 3 -2360 13 -2360 6 0 26 -3 42 -6 17 -3 50 -9 75
-12 53 -7 88 -13 133 -21 17 -3 43 -7 57 -9 49 -6 115 -16 130 -19 21 -4 99
-16 135 -20 17 -2 48 -7 70 -10 22 -4 69 -11 105 -16 119 -17 135 -20 160 -24
14 -3 41 -7 60 -10 19 -2 58 -8 85 -12 28 -3 59 -8 70 -10 11 -2 41 -6 66 -9
25 -3 55 -7 66 -9 12 -3 43 -8 70 -12 26 -3 57 -8 68 -10 11 -2 38 -6 60 -9
51 -7 90 -13 140 -20 22 -3 54 -7 70 -9 17 -2 41 -6 55 -9 49 -12 132 -21 156
-18 6 0 38 33 70 72 33 40 67 80 77 89 18 17 19 45 19 493 l0 474 56 26 c32
14 59 25 62 25 3 0 38 17 77 36 40 20 75 36 77 36 3 0 47 20 98 44 51 24 127
58 168 76 82 36 118 52 290 130 177 81 290 130 298 130 4 0 8 -405 7 -901 0
-495 2 -904 5 -909 3 -4 32 -11 65 -16 61 -8 67 -9 120 -18 17 -3 44 -7 60
-10 77 -12 114 -18 165 -26 49 -8 90 -14 155 -25 11 -1 43 -6 70 -10 28 -3 61
-9 75 -11 63 -12 248 -41 307 -49 17 -2 57 -8 90 -14 32 -6 74 -13 93 -16 19
-2 46 -6 60 -9 14 -3 59 -10 100 -16 106 -16 109 -17 165 -25 28 -4 59 -9 70
-12 11 -2 27 -5 35 -5 8 0 49 -6 90 -14 41 -7 93 -15 115 -19 22 -3 54 -8 70
-10 17 -3 48 -7 70 -9 22 -3 40 -6 40 -6 0 -2 29 -7 77 -14 75 -11 136 -21
218 -36 30 -6 71 -13 90 -15 19 -3 45 -7 57 -10 21 -5 64 28 169 132 18 17 35
28 38 25 3 -3 6 -1 6 4 0 6 24 28 53 49 28 22 95 74 147 115 53 41 111 86 129
100 18 14 63 49 99 78 79 63 79 63 162 127 36 27 67 53 68 57 2 5 10 8 17 8 7
0 15 4 17 8 2 5 35 33 73 62 39 30 72 57 75 60 3 3 23 18 45 35 22 16 42 31
45 34 3 4 34 28 70 56 36 27 67 52 70 55 3 3 30 24 60 48 30 23 60 45 65 50 6
4 39 30 75 57 36 28 67 52 70 55 3 3 66 52 140 110 130 100 188 146 220 173 8
8 53 42 100 78 47 35 87 66 90 69 3 3 77 62 165 130 88 69 167 130 175 137 8
7 60 47 115 90 55 42 103 82 107 88 4 5 8 701 8 1545 l0 1535 -1408 1407
-1407 1406 -50 7 c-27 3 -66 9 -85 11 -19 3 -53 7 -75 9 -66 6 -142 15 -182
20 -21 3 -56 7 -78 10 -22 2 -62 7 -90 10 -27 3 -70 8 -95 11 -25 2 -64 6 -87
9 -24 3 -64 7 -90 10 -27 3 -66 7 -88 10 -22 3 -62 7 -90 11 -27 3 -63 7 -80
9 -16 2 -57 6 -90 10 -33 3 -71 8 -85 10 -14 2 -50 6 -80 10 -30 3 -71 8 -90
10 -39 5 -108 12 -188 20 -29 2 -63 7 -75 10 -12 3 -47 8 -77 10 -30 3 -71 7
-90 9 -118 13 -158 18 -185 21 -16 3 -55 7 -85 10 -30 3 -73 7 -95 10 -22 2
-65 7 -95 10 -30 3 -66 8 -80 10 -45 7 -124 16 -180 20 -30 3 -65 7 -77 9 -12
3 -53 8 -90 11 -37 4 -79 8 -93 10 -14 2 -47 6 -75 9 -27 3 -70 8 -95 11 -25
3 -70 8 -100 10 -30 3 -67 8 -81 11 -15 3 -49 7 -76 9 -27 2 -69 6 -93 10 -24
4 -64 8 -89 11 -25 2 -65 6 -87 8 -31 4 -45 1 -56 -12z m632 -347 c36 -3 78
-7 95 -9 16 -3 66 -7 110 -11 44 -4 96 -8 115 -11 19 -2 67 -7 105 -9 39 -3
79 -7 90 -10 11 -2 30 -4 42 -4 25 -1 49 -24 178 -175 28 -32 61 -71 75 -86
21 -23 59 -66 150 -170 8 -10 35 -41 60 -70 25 -29 56 -65 70 -80 14 -15 38
-43 54 -61 16 -19 45 -52 65 -74 20 -23 61 -70 92 -105 31 -36 92 -105 135
-155 43 -49 96 -108 116 -130 21 -22 38 -43 38 -46 0 -4 -26 -14 -57 -24 -32
-9 -92 -28 -133 -41 -41 -13 -82 -24 -90 -24 -9 0 -21 -5 -28 -12 -7 -7 -12
-9 -12 -5 0 3 -18 0 -40 -8 -22 -8 -40 -12 -40 -8 0 3 -6 1 -12 -5 -7 -6 -29
-13 -49 -17 -38 -7 -40 -6 -214 195 -26 30 -54 62 -62 70 -23 25 -171 192
-212 238 -73 85 -130 149 -151 173 -14 15 -38 43 -55 61 -16 19 -59 67 -95
107 -87 98 -87 98 -150 171 -30 34 -67 75 -81 91 -14 15 -52 58 -85 95 -63 72
-73 84 -117 131 l-28 30 28 -3 c15 -2 57 -6 93 -9z m-360 -186 c80 -94 152
-178 161 -187 8 -9 41 -48 74 -87 32 -38 65 -77 74 -86 9 -9 32 -36 53 -60 34
-42 50 -61 101 -119 12 -14 64 -75 116 -135 52 -61 102 -117 110 -126 9 -8 32
-35 51 -59 19 -24 46 -55 60 -71 14 -15 42 -47 62 -71 20 -23 49 -56 63 -73
163 -188 180 -211 153 -212 -7 0 -47 -11 -88 -23 -41 -13 -79 -24 -85 -26 -5
-1 -30 -8 -55 -15 -25 -7 -49 -14 -55 -15 -5 0 -17 -4 -25 -7 -8 -4 -87 -27
-175 -53 -88 -26 -205 -60 -260 -76 -325 -95 -411 -120 -422 -121 -7 0 -13 -4
-13 -9 0 -5 -4 -7 -9 -4 -5 3 -35 -3 -67 -14 -33 -12 -60 -21 -61 -21 -2 0 -8
-1 -15 -4 -7 -2 -47 -13 -88 -25 -41 -12 -97 -28 -125 -36 -27 -8 -57 -17 -65
-19 -8 -2 -55 -15 -105 -30 -141 -42 -423 -125 -495 -145 -81 -23 -131 -38
-290 -85 -69 -21 -132 -38 -140 -39 -9 -1 -20 -5 -26 -8 -16 -11 -66 -18 -62
-10 4 10 281 425 288 432 3 3 140 208 304 455 165 248 302 452 306 455 4 3 9
10 11 16 4 11 460 695 469 704 3 3 10 13 15 22 30 51 101 157 105 157 3 0 70
-77 150 -170z m1513 75 c12 -2 51 -6 87 -10 119 -10 109 -4 195 -105 11 -13
56 -65 100 -115 44 -50 105 -119 135 -154 30 -35 59 -68 65 -74 5 -6 55 -63
109 -126 55 -63 107 -122 115 -131 23 -23 114 -129 129 -150 11 -17 6 -25 -43
-74 -31 -30 -59 -54 -63 -54 -4 1 -9 0 -12 -1 -10 -4 -41 -11 -69 -16 -30 -6
-39 1 -124 100 -10 12 -32 37 -50 56 -17 19 -47 53 -66 75 -46 52 -170 192
-196 221 -11 12 -44 49 -73 82 -29 33 -63 71 -75 84 -28 32 -81 92 -132 149
-71 81 -189 212 -212 236 l-22 23 90 -6 c50 -3 100 -7 112 -10z m707 -68 c25
-3 68 -8 95 -10 160 -15 170 -17 188 -39 10 -12 45 -51 77 -87 32 -36 75 -85
96 -110 66 -76 88 -101 127 -144 20 -22 37 -44 37 -47 0 -10 -183 -190 -190
-187 -6 3 -86 91 -205 227 -17 19 -39 44 -50 55 -11 12 -51 57 -90 101 -38 44
-72 82 -75 85 -22 22 -140 158 -140 163 0 5 39 3 130 -7z m835 -82 c28 -3 67
-6 88 -6 21 -1 40 -4 42 -8 5 -7 -137 -152 -154 -158 -5 -1 -37 30 -72 70 -35
40 -75 84 -88 97 l-25 23 80 -6 c44 -3 102 -9 129 -12z m1718 -1577 l1028
-1022 -53 -24 c-28 -13 -57 -24 -62 -26 -6 -1 -24 -8 -41 -15 -16 -7 -34 -14
-40 -16 -5 -1 -67 -26 -136 -55 l-127 -52 -38 43 c-22 24 -47 52 -57 64 -10
12 -33 37 -50 56 -18 19 -52 57 -76 85 -100 113 -167 190 -190 214 -25 28
-118 133 -148 167 -25 29 -143 163 -168 190 -11 12 -45 50 -75 84 -30 34 -64
72 -75 84 -11 12 -47 53 -80 90 -33 37 -69 78 -80 91 -11 12 -49 55 -85 95
-36 40 -69 78 -75 84 -5 6 -41 47 -80 91 -38 44 -72 82 -75 85 -3 3 -39 43
-79 90 -41 47 -80 90 -85 95 -6 6 -76 84 -156 175 -79 91 -147 167 -150 170
-3 3 -37 41 -75 85 -39 44 -81 92 -95 106 -14 14 -36 39 -50 55 -14 16 -44 51
-66 77 l-42 48 90 90 90 90 186 -186 c103 -103 649 -646 1215 -1208z m-1696
956 c32 -38 60 -70 63 -73 3 -3 32 -36 65 -75 33 -38 69 -79 80 -91 11 -12 40
-45 65 -74 25 -30 52 -61 60 -69 9 -9 45 -50 80 -91 88 -102 106 -121 127
-147 11 -12 42 -48 71 -80 28 -32 61 -69 72 -83 12 -14 48 -54 79 -90 32 -36
71 -81 87 -100 16 -19 34 -39 40 -45 6 -5 67 -75 135 -154 68 -80 135 -157
149 -171 14 -15 43 -49 65 -75 22 -26 51 -60 65 -75 14 -15 50 -55 80 -90 30
-35 62 -71 70 -80 8 -9 71 -81 139 -160 69 -80 132 -152 140 -161 21 -21 120
-134 157 -179 16 -19 44 -50 61 -70 18 -19 33 -38 33 -41 0 -4 -53 -28 -117
-54 l-117 -47 -34 39 c-19 21 -62 69 -96 107 -33 38 -68 77 -76 86 -8 9 -41
46 -72 81 -31 35 -66 75 -78 89 -12 14 -50 57 -85 95 -35 39 -72 79 -82 91
-27 31 -141 160 -198 224 -27 30 -59 66 -70 79 -11 13 -32 36 -46 52 -14 15
-52 58 -85 95 -32 37 -64 72 -69 78 -6 6 -42 47 -80 91 -39 44 -79 89 -90 100
-18 20 -57 64 -190 215 -27 30 -54 60 -59 66 -6 6 -40 44 -76 84 -36 41 -105
119 -155 175 -49 55 -98 111 -110 124 -11 13 -32 36 -46 52 -14 15 -52 58 -85
95 -32 37 -71 81 -86 98 -16 17 -28 34 -28 39 0 10 171 186 182 187 3 0 33
-30 65 -67z m-287 -483 c30 -35 64 -74 75 -85 19 -21 95 -109 146 -169 13 -16
31 -36 39 -45 9 -9 45 -50 80 -91 36 -41 70 -80 75 -86 6 -6 30 -35 55 -63 25
-29 56 -65 70 -80 14 -14 52 -58 84 -96 33 -39 65 -74 71 -80 9 -9 118 -134
149 -173 6 -7 18 -21 27 -30 16 -16 42 -47 159 -181 30 -35 62 -72 71 -82 81
-93 121 -139 160 -183 25 -28 77 -87 115 -131 37 -44 73 -85 79 -91 5 -6 30
-35 55 -64 25 -29 52 -61 60 -69 9 -9 47 -52 85 -96 39 -44 76 -86 83 -94 7
-7 11 -15 9 -17 -2 -2 -53 -24 -113 -49 l-109 -46 -57 61 c-31 33 -76 83 -100
111 -24 28 -54 63 -68 78 -14 15 -54 60 -90 101 -36 40 -86 96 -111 124 -26
28 -59 67 -75 86 -16 19 -36 42 -44 50 -19 20 -157 173 -188 209 -13 14 -33
37 -45 51 -41 47 -172 194 -192 215 -11 12 -40 45 -65 74 -25 29 -66 75 -91
102 -26 27 -44 49 -42 49 3 0 -8 12 -23 28 -16 15 -44 45 -63 67 -43 50 -145
165 -190 214 -18 20 -59 65 -90 100 -31 35 -73 83 -93 105 -36 39 -38 45 -38
111 -1 39 -2 128 -3 198 l-2 128 45 -48 c25 -27 70 -78 100 -113z m-550 -171
c24 -28 49 -57 55 -63 46 -48 51 -62 47 -137 -1 -41 -3 -78 -3 -84 5 -138 4
-242 -1 -238 -5 2 -5 -6 0 -19 9 -27 8 -261 0 -268 -4 -3 -28 20 -55 50 -45
52 -85 96 -143 160 -14 15 -36 40 -50 56 -50 58 -245 279 -250 284 -3 3 -36
40 -73 82 l-68 77 118 36 c65 20 163 50 218 67 55 16 109 33 120 38 34 15 40
12 85 -41z m-887 -222 c11 -11 81 -92 192 -222 58 -68 134 -155 149 -171 6 -6
29 -33 51 -59 22 -27 45 -53 50 -59 6 -6 35 -40 65 -76 30 -36 57 -67 60 -70
3 -3 48 -54 100 -115 52 -60 97 -112 100 -115 3 -3 27 -32 55 -65 27 -33 62
-73 77 -90 74 -84 88 -101 89 -112 1 -18 1 -143 0 -173 -1 -14 0 -77 1 -142 2
-64 0 -114 -4 -111 -5 2 -5 -6 0 -19 6 -19 8 -260 3 -368 -1 -14 0 -77 1 -142
2 -64 0 -114 -4 -111 -5 2 -5 -6 0 -19 6 -19 8 -260 3 -368 -1 -14 0 -77 1
-142 2 -64 0 -114 -4 -111 -5 2 -5 -6 0 -19 4 -13 7 -90 6 -172 0 -118 -4
-152 -15 -158 -12 -7 -110 -51 -204 -93 -16 -7 -61 -27 -98 -44 -38 -17 -70
-31 -72 -31 -2 0 -46 -20 -99 -45 -53 -25 -99 -45 -101 -45 -3 0 -33 -13 -67
-29 -35 -15 -83 -37 -108 -49 -25 -11 -67 -30 -95 -42 -27 -13 -68 -31 -90
-40 l-40 -17 0 768 c0 678 -2 769 -15 771 -31 3 -35 4 -47 11 -6 4 -14 3 -18
-3 -4 -6 -12 -7 -18 -3 -7 4 -23 8 -37 9 -14 1 -50 5 -80 8 -55 6 -96 11 -200
21 -30 3 -71 8 -90 10 -53 6 -150 16 -195 20 -22 2 -67 6 -100 10 -76 10 -105
13 -185 20 -36 3 -76 8 -90 10 -14 2 -54 7 -90 10 -66 6 -142 14 -195 20 -16
2 -62 6 -102 10 -39 4 -80 8 -90 9 -10 2 -25 -1 -33 -5 -8 -4 -35 -17 -60 -27
-135 -60 -180 -84 -180 -95 0 -6 0 -546 -1 -1199 l0 -1188 -28 -15 c-16 -8
-31 -11 -35 -8 -3 4 -6 1 -6 -5 0 -7 -9 -12 -20 -12 -11 0 -20 -4 -20 -10 0
-5 -3 -9 -7 -8 -14 3 -63 -14 -63 -21 0 -4 -25 -16 -55 -26 -30 -11 -55 -22
-55 -26 0 -4 -11 -10 -25 -13 -13 -3 -63 -24 -110 -46 -47 -22 -92 -40 -100
-40 -7 0 -15 -3 -17 -8 -1 -4 -58 -31 -125 -60 -67 -29 -153 -67 -190 -84 -37
-17 -70 -32 -73 -32 -3 -1 -31 -14 -64 -29 -32 -15 -64 -27 -71 -27 -7 0 -18
-7 -25 -15 -7 -8 -20 -15 -29 -15 -9 0 -21 -4 -27 -8 -5 -5 -34 -19 -64 -32
-30 -13 -69 -29 -86 -36 l-30 -13 2 1072 c1 590 3 1516 3 2058 l1 986 93 28
c50 16 97 29 102 31 6 1 87 25 180 54 94 29 175 53 180 54 11 2 131 39 205 63
25 8 52 16 61 18 18 4 340 101 379 115 14 5 75 23 135 40 61 17 117 34 125 37
8 3 20 7 25 8 6 2 64 19 130 40 66 20 127 38 135 40 8 2 53 16 100 30 87 27
273 83 300 90 8 2 29 8 45 13 67 22 501 154 515 157 37 9 385 117 389 121 9 8
33 4 44 -9z m1417 -383 c25 -28 68 -77 95 -109 28 -31 61 -70 75 -85 14 -15
41 -47 61 -71 21 -24 48 -56 60 -70 13 -14 51 -56 84 -94 33 -38 69 -79 80
-91 11 -12 39 -44 62 -71 22 -26 49 -57 60 -68 10 -11 45 -51 78 -90 33 -38
67 -76 75 -85 8 -9 38 -42 65 -74 28 -33 57 -66 65 -75 9 -9 43 -47 75 -86 33
-38 69 -79 80 -90 11 -12 34 -39 52 -59 38 -46 127 -148 165 -190 15 -16 26
-31 25 -32 -1 -1 -49 -20 -107 -43 -58 -23 -118 -48 -135 -55 -38 -16 -98 -40
-105 -42 -3 0 -18 -6 -35 -13 -69 -29 -68 -29 -94 3 -20 25 -141 162 -186 212
-5 6 -35 39 -65 74 -30 35 -66 75 -80 90 -14 15 -52 58 -85 95 -33 38 -64 73
-70 79 -5 6 -39 45 -75 86 -36 41 -79 91 -97 110 -17 19 -41 46 -53 60 -12 14
-48 54 -80 90 -114 126 -110 120 -110 180 -1 30 -2 189 -3 353 l-2 298 40 -43
c22 -24 60 -66 85 -94z m3075 -2271 c-1 -1071 -3 -1228 -15 -1224 -8 2 -24 5
-35 6 -11 2 -40 8 -65 14 -25 5 -58 12 -75 15 -51 10 -78 15 -125 26 -25 5
-56 12 -70 14 -14 3 -50 10 -80 16 -30 6 -66 13 -80 16 -14 2 -45 9 -70 14
-25 5 -56 12 -70 14 -14 3 -50 10 -80 16 -30 7 -64 13 -75 15 -11 2 -20 4 -20
5 0 1 -9 3 -20 4 -11 2 -33 6 -50 10 -16 3 -41 8 -55 11 -41 8 -165 33 -345
70 -93 20 -186 38 -205 41 -19 2 -43 7 -52 10 -10 3 -30 7 -45 10 -16 2 -39 7
-53 10 -14 4 -34 8 -45 10 -11 2 -65 12 -120 24 -55 11 -110 21 -122 22 -13 2
-23 6 -23 11 0 4 -4 6 -8 3 -4 -2 -39 2 -77 11 -39 8 -76 15 -82 16 -10 0 -13
120 -13 566 l0 566 73 29 c39 16 101 41 137 56 66 28 101 42 110 45 3 1 18 7
34 14 15 6 63 25 105 42 42 17 85 35 96 40 11 5 115 47 230 94 116 47 219 89
230 94 11 5 45 19 75 31 30 11 64 25 75 30 69 31 172 70 182 70 7 0 13 5 13
10 0 6 3 9 8 8 4 0 16 2 27 7 11 4 103 41 205 82 102 41 194 79 205 84 72 32
191 79 202 79 7 0 13 5 13 10 0 6 7 10 16 10 9 0 30 6 47 14 67 28 82 35 87
35 3 1 5 -551 5 -1226z m-3080 1017 c54 -63 122 -142 151 -175 72 -82 83 -95
129 -151 22 -26 49 -57 60 -68 11 -12 49 -56 84 -98 l64 -77 0 -563 c-1 -310
-2 -568 -2 -575 -1 -9 -31 -11 -58 -4 -2 1 -5 1 -8 2 -2 0 -19 4 -36 9 -18 5
-50 12 -73 16 -22 3 -43 7 -46 9 -3 2 -25 6 -49 10 -24 3 -53 10 -66 15 -13 5
-25 7 -28 4 -2 -2 -15 0 -29 5 -14 5 -42 12 -64 15 -21 3 -63 11 -91 17 l-53
10 0 52 c-1 61 -1 1327 0 1537 0 79 4 140 8 135 5 -6 53 -62 107 -125z m-2700
-676 c28 -3 77 -7 110 -9 33 -3 80 -7 105 -10 25 -3 74 -7 110 -10 63 -5 143
-12 225 -20 22 -2 69 -6 105 -9 36 -2 94 -8 130 -12 36 -3 81 -7 100 -8 19 -1
40 -5 46 -8 7 -5 10 -226 10 -705 l-1 -697 -130 -58 c-71 -31 -152 -67 -180
-80 -27 -12 -52 -23 -55 -23 -3 -1 -25 -11 -50 -24 -25 -13 -46 -23 -48 -22
-1 1 -22 -6 -45 -17 -125 -59 -201 -92 -213 -92 -8 0 -14 -4 -14 -10 0 -5 -5
-10 -11 -10 -6 0 -70 -26 -142 -59 -73 -32 -150 -66 -172 -76 -22 -10 -47 -21
-56 -26 -15 -7 -17 70 -17 997 l0 1006 71 -7 c40 -3 95 -8 122 -11z m2670
-1135 c55 -12 107 -24 115 -25 8 -2 35 -8 60 -14 25 -5 61 -13 80 -15 19 -3
56 -12 83 -20 26 -8 50 -14 52 -14 20 0 125 -25 126 -30 0 -3 2 -522 2 -1154
1 -758 -1 -1147 -8 -1148 -12 -2 -8 -2 -80 6 -33 3 -69 8 -80 10 -11 3 -38 7
-60 10 -53 8 -250 34 -300 41 -22 3 -47 7 -55 9 -8 2 -40 7 -70 10 -30 3 -66
8 -80 10 -14 2 -43 6 -65 9 -22 4 -51 8 -65 11 -14 2 -45 7 -70 10 -82 9 -135
16 -160 21 -26 4 -98 14 -140 19 -14 1 -36 5 -50 8 -14 4 -47 9 -75 12 -27 2
-61 7 -75 9 -14 3 -47 8 -75 11 -27 3 -63 7 -80 10 -16 3 -48 7 -70 11 -51 8
-70 10 -130 18 -28 4 -64 9 -80 12 l-30 5 0 855 c0 470 3 854 7 854 3 0 49 20
102 45 53 25 99 45 101 45 2 0 39 16 82 36 43 20 123 56 178 81 55 25 134 61
175 80 41 20 80 36 85 38 10 2 36 14 199 89 44 21 103 47 130 58 28 12 54 24
59 28 4 3 42 -2 85 -11 42 -10 122 -28 177 -40z m1075 -235 c62 -15 82 -19
133 -28 12 -2 49 -11 82 -19 33 -8 94 -22 135 -31 41 -9 127 -28 190 -41 124
-28 128 -29 240 -52 41 -8 82 -17 90 -19 13 -3 50 -11 176 -40 16 -3 37 -6 47
-7 9 -1 17 -4 17 -8 0 -4 8 -6 17 -5 9 2 37 -3 61 -10 24 -8 47 -13 50 -13 4
1 9 0 12 -1 3 -1 12 -3 20 -5 8 -1 49 -10 90 -19 41 -9 86 -19 100 -22 14 -3
32 -7 40 -9 8 -3 33 -7 55 -11 22 -3 43 -8 48 -11 4 -2 17 -6 30 -8 95 -17
272 -57 280 -64 4 -4 -36 -41 -90 -82 -54 -41 -100 -76 -103 -80 -3 -3 -23
-18 -45 -35 -22 -16 -46 -35 -55 -41 -8 -7 -121 -94 -250 -193 -129 -99 -248
-191 -265 -204 -16 -13 -71 -55 -120 -92 -50 -38 -106 -81 -125 -96 -93 -73
-200 -156 -229 -178 -18 -14 -77 -59 -131 -100 -53 -41 -144 -111 -201 -155
-125 -95 -288 -221 -309 -238 -9 -7 -43 -33 -75 -58 l-60 -46 2 1021 c2 561 3
1022 3 1024 0 5 66 -7 140 -24z m-4281 -1350 l0 -305 -47 6 c-26 4 -63 8 -82
11 -19 3 -62 7 -95 10 -33 3 -71 7 -85 10 -14 3 -45 7 -70 9 -25 2 -67 6 -95
10 -68 10 -101 14 -160 20 -121 12 -152 16 -180 20 -44 8 -155 19 -192 20 -18
0 -33 3 -33 7 0 3 -10 4 -22 1 -19 -3 -17 -1 7 13 17 10 35 19 40 20 6 1 51
21 100 44 50 23 104 47 120 55 17 7 62 28 100 45 39 17 84 38 100 45 207 93
355 160 485 220 52 24 98 44 102 44 4 1 7 -136 7 -305z"/>
</g>
</svg>
