<?xml version="1.0" encoding="utf-8"?>
<!-- Generator: Adobe Illustrator 20.1.0, SVG Export Plug-In . SVG Version: 6.00 Build 0)  -->
<svg version="1.1" id="Layer_1" xmlns="http://www.w3.org/2000/svg" xmlns:xlink="http://www.w3.org/1999/xlink" x="0px" y="0px"
	 viewBox="0 0 216 216" style="enable-background:new 0 0 216 216;" xml:space="preserve">
<path d="M67.9,198C149.4,198,194,130.5,194,71.9c0-1.9,0-3.8-0.1-5.7c8.7-6.3,16.2-14,22.1-22.9c-8.1,3.6-16.7,5.9-25.5,7
	c9.3-5.5,16.2-14.2,19.5-24.5c-8.7,5.2-18.2,8.8-28.1,10.8c-16.8-17.8-44.9-18.7-62.7-1.9c-11.5,10.8-16.4,27-12.8,42.3
	C70.7,75.1,37.5,58.3,15,30.6C3.3,50.8,9.3,76.7,28.8,89.7c-7.1-0.2-14-2.1-20.1-5.5c0,0.2,0,0.4,0,0.6c0,21.1,14.9,39.3,35.6,43.4
	c-6.5,1.8-13.4,2-20,0.8c5.8,18.1,22.4,30.4,41.4,30.8c-15.7,12.3-35.1,19-55,19c-3.5,0-7-0.2-10.5-0.6
	C20.3,191.1,43.8,198,67.9,198"/>
</svg>
