<svg id="Layer_1" data-name="Layer 1" xmlns="http://www.w3.org/2000/svg" viewBox="0 0 207.79 209.79"><defs><style>.cls-1{fill:#231f20;}</style></defs><title>logo_favicon</title><polygon class="cls-1" points="146.1 105.63 143.84 103.08 199.36 80.59 204.53 81.92 146.1 105.63"/><polygon class="cls-1" points="116.5 137.75 197.81 155.57 200.44 153.54 116.49 134.73 116.5 137.75"/><polygon class="cls-1" points="116.49 134.73 120.58 133.81 200.44 149.97 200.44 153.54 116.49 134.73"/><polyline class="cls-1" points="116.49 134.73 9.56 182.43 9.56 179.1 112.95 133.08 116.49 134.73"/><polygon class="cls-1" points="116.5 134.58 116.5 137.75 15.72 183.15 9.56 182.43 116.5 134.58"/><polygon class="cls-1" points="116.5 39.6 120.58 38.59 120.58 133.81 116.49 134.73 116.5 39.6"/><polygon class="cls-1" points="112.95 45.08 112.95 133.08 116.49 134.73 116.5 44.01 112.95 45.08"/><polygon class="cls-1" points="116.5 39.6 113.36 36.47 13.04 65.8 9.79 70.67 116.5 39.6"/><polygon class="cls-1" points="9.79 70.67 116.5 39.6 116.5 44.01 9.79 76.23 9.79 70.67"/><polygon class="cls-1" points="0 188.42 5.57 189.31 5.57 71.77 0 70.67 0 188.42"/><polygon class="cls-1" points="5.57 185.03 9.56 182.43 9.79 70.67 5.57 71.77 5.57 185.03"/><polygon class="cls-1" points="5.57 185.03 42.69 189.95 42.69 194.82 5.57 189.31 5.57 185.03"/><polygon class="cls-1" points="42.69 189.95 42.69 186.32 9.56 182.43 5.57 185.03 42.69 189.95"/><polygon class="cls-1" points="42.69 194.82 42.69 194.82 42.69 109.57 47.15 109.98 47.15 195.51 42.69 194.82"/><path class="cls-1" d="M48.35,195.9" transform="translate(-0.25 -0.25)"/><path class="cls-1" d="M.25,188.67" transform="translate(-0.25 -0.25)"/><polygon class="cls-1" points="42.69 109.57 42.69 104.32 83.78 108.07 83.78 113.26 42.69 109.57"/><polygon class="cls-1" points="47.15 109.98 51.24 110.34 51.24 190.74 47.15 195.51 47.15 109.98"/><polygon class="cls-1" points="42.69 104.32 49.2 101.5 88.28 105.6 83.78 108.07 42.69 104.32"/><polyline class="cls-1" points="83.78 113.26 88.28 110.59 88.28 105.6 83.78 108.07 83.78 113.26"/><path class="cls-1" d="M79.83,113" transform="translate(-0.25 -0.25)"/><polygon class="cls-1" points="79.58 112.88 79.58 199.9 83.78 200.58 83.78 113.26 79.58 112.88"/><polyline class="cls-1" points="83.78 194.94 88.28 193.07 88.28 110.59 83.77 113.26 83.78 194.94"/><path class="cls-1" d="M84,200.83" transform="translate(-0.25 -0.25)"/><polygon class="cls-1" points="83.78 194.94 135.7 202.45 135.7 208.74 83.78 200.58 83.78 194.94"/><polygon class="cls-1" points="83.78 194.94 88.28 193.07 135.7 199.75 135.7 202.45 83.78 194.94"/><polygon class="cls-1" points="135.7 208.74 135.7 108.06 141.59 107.93 141.59 209.79 135.7 208.74"/><path class="cls-1" d="M79.83,200.15" transform="translate(-0.25 -0.25)"/><path class="cls-1" d="M163.64,213.52" transform="translate(-0.25 -0.25)"/><path class="cls-1" d="M79.83,200.15" transform="translate(-0.25 -0.25)"/><polygon class="cls-1" points="141.59 107.93 146.1 105.63 146 205.74 141.59 209.79 141.59 107.93"/><polygon class="cls-1" points="146 205.74 207.71 157.48 207.79 152.06 146.1 199.6 146 205.74"/><polygon class="cls-1" points="207.79 152.06 207.79 85.58 203.6 87.31 203.6 155.28 207.79 152.06"/><path class="cls-1" d="M208,131.9" transform="translate(-0.25 -0.25)"/><polygon class="cls-1" points="146.1 195.37 200.44 153.54 203.6 155.28 146.1 199.6 146.1 195.37"/><polygon class="cls-1" points="200.44 153.54 203.6 155.28 203.6 87.31 200.44 88.62 200.44 153.54"/><polygon class="cls-1" points="207.79 85.58 207.79 80.59 146.1 105.63 146.1 110.77 207.79 85.58"/><polyline class="cls-1" points="141.59 107.93 47.9 0 53.23 0.6 146.1 105.63 141.59 107.93"/><polygon class="cls-1" points="141.59 107.93 135.7 108.06 48.31 6.66 47.9 0 141.59 107.93"/><polygon class="cls-1" points="47.9 0 0 70.67 5.57 71.77 48.31 6.66 47.9 0"/><polygon class="cls-1" points="9.79 70.67 5.57 71.77 48.31 6.66 50.7 9.44 9.79 70.67"/><polygon class="cls-1" points="53.23 0.6 137.41 10.22 207.79 80.59 204.53 81.92 135.79 13.48 57.83 5.81 53.23 0.6"/><path class="cls-1" d="M95,5.5" transform="translate(-0.25 -0.25)"/><polygon class="cls-1" points="60.52 8.84 134.35 15.96 135.79 13.48 57.83 5.81 60.52 8.84"/><polygon class="cls-1" points="134.35 15.96 135.79 13.48 204.53 81.92 199.36 80.59 134.35 15.96"/><polygon class="cls-1" points="113.36 36.47 134.35 15.96 136.52 18.08 116.5 39.6 113.36 36.47"/><polygon class="cls-1" points="120.58 38.59 138.64 20.17 136.52 18.08 116.5 39.6 120.58 38.59"/><polygon class="cls-1" points="78.03 10.53 80.15 8 160.56 99.76 155.08 98.53 78.03 10.53"/><polygon class="cls-1" points="80.15 8 84.58 8.47 164.37 98.22 160.56 99.76 80.15 8"/><polygon class="cls-1" points="97.21 12.38 99.36 9.89 173.4 94.55 167.91 93.33 97.21 12.38"/><polygon class="cls-1" points="99.36 9.89 103.78 10.33 177.23 93 173.4 94.55 99.36 9.89"/><polygon class="cls-1" points="116.5 14.24 118.56 11.78 186.39 89.28 181 88.03 116.5 14.24"/><polygon class="cls-1" points="118.56 11.78 123.03 12.22 190.1 87.78 186.39 89.28 118.56 11.78"/></svg>