<?xml version="1.0" encoding="utf-8"?>
<!-- Generator: Adobe Illustrator 20.1.0, SVG Export Plug-In . SVG Version: 6.00 Build 0)  -->
<svg version="1.1" id="Layer_1" xmlns="http://www.w3.org/2000/svg" xmlns:xlink="http://www.w3.org/1999/xlink" x="0px" y="0px"
	 viewBox="0 0 392.2 49.8" style="enable-background:new 0 0 392.2 49.8;" xml:space="preserve">
<g>
	<path d="M20.9,49.8c-2.7,0-5-0.6-7-1.7c-2-1.1-3.6-2.7-4.7-4.8v5.8H0V0.6h10.6V20c1.2-2,2.7-3.6,4.6-4.7c1.9-1.1,4.2-1.7,6.8-1.7
		c2.2,0,4.3,0.5,6.1,1.4s3.5,2.2,4.8,3.9c1.3,1.6,2.4,3.6,3.1,5.8c0.8,2.2,1.1,4.6,1.1,7.1s-0.4,4.9-1.2,7.1c-0.8,2.2-2,4.1-3.4,5.7
		c-1.5,1.6-3.2,2.9-5.2,3.8C25.4,49.3,23.2,49.8,20.9,49.8z M17.9,40.8c1.2,0,2.4-0.2,3.4-0.7s1.9-1.1,2.6-1.9s1.3-1.7,1.7-2.8
		s0.6-2.3,0.6-3.6c0-1.2-0.2-2.4-0.6-3.6s-0.9-2.1-1.6-3c-0.7-0.8-1.5-1.5-2.5-2s-2-0.7-3.1-0.7c-1.7,0-3.2,0.6-4.6,1.7
		c-1.4,1.2-2.5,2.6-3.2,4.3v7.3c0.7,1.5,1.7,2.7,3.1,3.6C15.1,40.4,16.5,40.8,17.9,40.8z"/>
	<path d="M54.4,49.8c-3.6,0-6.3-1.1-8.1-3.4c-1.8-2.2-2.8-5.5-2.8-9.9V14.2h10.6v20c0,2.1,0.4,3.8,1.3,4.9c0.8,1.1,2,1.7,3.6,1.7
		c1.4,0,2.8-0.4,4.1-1.1c1.3-0.8,2.5-2.1,3.5-3.9V14.3h10.7v22.9c0,1.1,0.2,1.8,0.5,2.2s0.9,0.7,1.8,0.8v9c-1,0.2-1.9,0.4-2.6,0.4
		c-0.7,0.1-1.4,0.1-1.9,0.1c-3.8,0-6-1.5-6.5-4.5l-0.2-2.1c-1.6,2.3-3.6,4-6,5.1C60,49.3,57.3,49.8,54.4,49.8z"/>
	<path d="M86.8,10.2V0.6h10.6v9.6H86.8z M86.8,49.1V14.2h10.6v34.9H86.8z"/>
	<path d="M105.9,0.6h10.6v36.1c0,2.7,1.1,4,3.4,4c0.5,0,1.1-0.1,1.8-0.2c0.6-0.2,1.2-0.4,1.8-0.7l1.4,8c-1.3,0.6-2.9,1.1-4.6,1.5
		s-3.3,0.5-4.9,0.5c-3.1,0-5.4-0.8-7-2.4c-1.6-1.6-2.5-3.9-2.5-6.9L105.9,0.6L105.9,0.6z"/>
	<path d="M144.2,49.8c-2.4,0-4.6-0.5-6.6-1.4s-3.8-2.2-5.2-3.8c-1.5-1.6-2.6-3.6-3.4-5.8s-1.2-4.6-1.2-7.2c0-2.5,0.4-4.9,1.1-7.1
		c0.8-2.2,1.8-4.1,3.2-5.8c1.4-1.6,3-2.9,4.9-3.8c1.9-0.9,4-1.4,6.2-1.4c2.4,0,4.6,0.6,6.6,1.7c2,1.2,3.5,2.7,4.6,4.7V0.5H165v36.6
		c0,1.1,0.2,1.8,0.5,2.2s0.9,0.7,1.8,0.8v9c-1,0.2-1.8,0.4-2.5,0.4c-0.7,0.1-1.4,0.1-2,0.1c-1.9,0-3.4-0.4-4.5-1.2
		c-1.2-0.8-1.8-1.9-2-3.4l-0.2-1.8c-1.2,2.2-2.9,3.8-5,4.9C148.8,49.3,146.6,49.8,144.2,49.8z M147,40.8c1.5,0,2.9-0.4,4.2-1.3
		c1.4-0.9,2.4-2,3.1-3.6v-7.3c-0.7-1.8-1.7-3.2-3.2-4.4c-1.5-1.1-3-1.7-4.6-1.7c-1.2,0-2.2,0.3-3.2,0.8s-1.8,1.2-2.5,2
		s-1.3,1.8-1.6,2.9c-0.4,1.1-0.6,2.3-0.6,3.5c0,1.3,0.2,2.5,0.6,3.6s1,2.1,1.7,2.9c0.7,0.8,1.6,1.4,2.7,1.9
		C144.7,40.6,145.8,40.8,147,40.8z"/>
	<path d="M189.2,31.6c0-2.4,0.4-4.7,1.3-6.9c0.8-2.2,2.1-4.1,3.7-5.8s3.6-3,5.9-4s5-1.5,7.9-1.5c4,0,7.4,0.9,10.2,2.6
		c2.7,1.7,4.8,3.9,6.2,6.7L214,25.8c-1.4-2.2-3.4-3.3-6.1-3.3c-2.2,0-4.1,0.8-5.6,2.5c-1.5,1.6-2.2,3.8-2.2,6.6
		c0,1.4,0.2,2.6,0.6,3.8c0.4,1.1,1,2.1,1.7,2.9c0.7,0.8,1.5,1.4,2.5,1.9c1,0.4,2,0.7,3,0.7c1.3,0,2.5-0.3,3.7-1
		c1.1-0.6,1.9-1.5,2.5-2.5l10.4,3.2c-1.3,2.7-3.3,4.9-6.2,6.6c-2.8,1.7-6.2,2.6-10.3,2.6c-2.9,0-5.6-0.5-7.9-1.5s-4.3-2.3-5.9-4
		s-2.8-3.6-3.7-5.8C189.7,36.3,189.2,34,189.2,31.6z"/>
	<path d="M246.8,49.8c-3,0-5.6-0.5-7.9-1.5s-4.3-2.3-5.9-4s-2.8-3.6-3.6-5.8c-0.8-2.2-1.2-4.5-1.2-6.9s0.4-4.7,1.2-6.9
		c0.8-2.2,2-4.1,3.6-5.8s3.6-3,5.9-4s5-1.5,7.9-1.5c3,0,5.6,0.5,7.9,1.5s4.3,2.3,5.9,4s2.8,3.6,3.7,5.8c0.8,2.2,1.3,4.5,1.3,6.9
		s-0.4,4.7-1.2,6.9c-0.8,2.2-2,4.1-3.6,5.8s-3.6,3-5.9,4C252.5,49.3,249.8,49.8,246.8,49.8z M239.1,31.7c0,2.7,0.7,5,2.2,6.6
		c1.5,1.7,3.3,2.5,5.6,2.5c1.1,0,2.1-0.2,3.1-0.7c0.9-0.4,1.7-1.1,2.4-1.9c0.7-0.8,1.2-1.8,1.6-2.9c0.4-1.1,0.6-2.4,0.6-3.7
		c0-2.7-0.7-5-2.2-6.6c-1.5-1.7-3.3-2.5-5.5-2.5c-1.1,0-2.1,0.2-3.1,0.7c-1,0.4-1.8,1.1-2.5,1.9c-0.7,0.8-1.2,1.8-1.6,2.9
		C239.3,29.2,239.1,30.4,239.1,31.7z"/>
	<path d="M307,8.9c-1.5,0-2.5,0.5-3.2,1.4s-1,2.1-1,3.5v3.3h8.4v8h-8.4v24h-10.6v-24h-7.6v24H274v-24h-4.5v-8h4.5V16
		c0-2,0.3-3.8,0.9-5.5s1.4-3.1,2.5-4.3s2.4-2.1,3.9-2.8s3.3-1,5.2-1c1.4,0,2.9,0.2,4.4,0.5s3,0.8,4.6,1.4c1.1-1.3,2.4-2.3,4-3.1
		s3.4-1.2,5.6-1.2c1.6,0,3.1,0.2,4.5,0.6c1.5,0.4,2.9,0.9,4.3,1.5l-1.9,8c-0.7-0.3-1.4-0.5-2.2-0.7C308.6,9,307.8,8.9,307,8.9z
		 M292.1,17.1c0-0.1,0-0.4,0-0.9s0-1,0-1.6s0.1-1.1,0.1-1.6s0.1-0.8,0.1-0.9c-0.6-0.3-1.3-0.5-2-0.6s-1.4-0.2-1.9-0.2
		c-1.4,0-2.4,0.4-3.1,1.2c-0.6,0.8-0.9,1.9-0.9,3.2v1.5h7.7V17.1z"/>
	<path d="M332.2,49.8c-2.9,0-5.6-0.5-7.9-1.4s-4.3-2.2-5.9-3.9c-1.6-1.6-2.8-3.5-3.7-5.7c-0.8-2.1-1.3-4.4-1.3-6.8
		c0-2.5,0.4-4.9,1.3-7.1c0.8-2.2,2.1-4.2,3.7-5.9s3.6-3,5.9-4s5-1.5,7.9-1.5s5.6,0.5,7.9,1.5s4.3,2.3,5.9,4s2.8,3.6,3.6,5.8
		c0.8,2.2,1.2,4.5,1.2,6.8c0,0.6,0,1.2-0.1,1.8s-0.1,1.1-0.2,1.6h-25.8c0.2,2.3,1,4.1,2.6,5.4c1.5,1.2,3.3,1.8,5.2,1.8
		c1.6,0,3-0.4,4.5-1.1c1.4-0.8,2.4-1.8,2.9-3.1l9,2.5c-1.4,2.7-3.5,5-6.4,6.7C339.6,48.9,336.2,49.8,332.2,49.8z M339.5,28.4
		c-0.2-2.2-1-4-2.4-5.3s-3.1-1.9-5.1-1.9c-2.1,0-3.8,0.7-5.2,2c-1.4,1.3-2.1,3-2.4,5.2H339.5z"/>
	<path d="M373.6,49.8c-2.9,0-5.6-0.5-7.9-1.4s-4.3-2.2-5.9-3.9c-1.6-1.6-2.8-3.5-3.7-5.7c-0.8-2.1-1.3-4.4-1.3-6.8
		c0-2.5,0.4-4.9,1.3-7.1c0.8-2.2,2.1-4.2,3.7-5.9s3.6-3,5.9-4s5-1.5,7.9-1.5c3,0,5.6,0.5,7.9,1.5c2.3,1,4.3,2.3,5.9,4
		c1.6,1.7,2.8,3.6,3.6,5.8s1.2,4.5,1.2,6.8c0,0.6,0,1.2-0.1,1.8c0,0.6-0.1,1.1-0.2,1.6h-25.8c0.2,2.3,1,4.1,2.6,5.4
		c1.5,1.2,3.3,1.8,5.2,1.8c1.6,0,3-0.4,4.5-1.1c1.4-0.8,2.4-1.8,2.9-3.1l9,2.5c-1.4,2.7-3.5,5-6.4,6.7
		C381.1,48.9,377.7,49.8,373.6,49.8z M381,28.4c-0.2-2.2-1-4-2.4-5.3s-3.1-1.9-5.1-1.9c-2.1,0-3.8,0.7-5.2,2c-1.4,1.3-2.1,3-2.4,5.2
		H381z"/>
</g>
</svg>
